<svg id="Layer_1" data-name="Layer 1" xmlns="http://www.w3.org/2000/svg" viewBox="0 0 428.63 299.2"><defs><style>.cls-1{fill:#7f1416;}.cls-2{fill:#be1e2d;}.cls-3{fill:#ec1c24;}</style></defs><title>loading</title><polygon class="cls-1" points="284.4 61.8 106.21 61.8 106.21 0 302.06 0 284.4 61.8"/><polygon class="cls-2" points="322.41 123.6 106.21 123.6 106.21 61.8 304.76 61.8 322.41 123.6"/><polygon class="cls-3" points="281.58 185.4 106.21 185.4 106.21 123.6 263.93 123.6 281.58 185.4"/><path class="cls-1" d="M98.08,324.12V285.69H83.77V275.46h41.65l1.22,10.23H111.11v38.43Z" transform="translate(-83.77 -46.8)"/><path class="cls-1" d="M129.5,324.12V275.46H150a25.13,25.13,0,0,1,14.06,3.9q6,3.9,6,12.7a15,15,0,0,1-6.59,12.88l10.74,19.18h-15.1l-7.88-15.31h-8.65v15.31Zm20-38.43h-7v12.88h7.15a6.9,6.9,0,0,0,4.94-1.82,6.16,6.16,0,0,0,1.93-4.69,5.92,5.92,0,0,0-1.86-4.79A7.73,7.73,0,0,0,149.54,285.69Z" transform="translate(-83.77 -46.8)"/><path class="cls-1" d="M177,324.12V275.46h13v48.66Z" transform="translate(-83.77 -46.8)"/><path class="cls-1" d="M252.31,275.46l18.18,47.38-12.81,1.28-3.51-9.59H237.35L234,324.12H221l18.25-48.66Zm-6.73,15.6-4.65,13.24h9.52Z" transform="translate(-83.77 -46.8)"/><path class="cls-1" d="M308.28,324.12H273.35V275.46h13v38.43h20.68Z" transform="translate(-83.77 -46.8)"/><path class="cls-1" d="M341.06,304.87V275.46h13v30.06q0,9.51-6,14.56t-15.79,5.05q-9.74,0-15.78-5.05t-6-14.56V275.46h13v29.41c0,3.06.82,5.38,2.47,7a9.56,9.56,0,0,0,12.67,0C340.23,310.25,341.06,307.93,341.06,304.87Z" transform="translate(-83.77 -46.8)"/><path class="cls-1" d="M373.05,304.94a54.41,54.41,0,0,1-9.73-6.33,12.37,12.37,0,0,1-4.87-10.13,12.54,12.54,0,0,1,4.94-10q4.86-4,13.17-4a29.46,29.46,0,0,1,7.55,1,22.35,22.35,0,0,1,6.76,3l-3.87,8.8a47.37,47.37,0,0,0-5.86-1.76,23.37,23.37,0,0,0-4.44-.39,5.46,5.46,0,0,0-3.51,1,3,3,0,0,0-1.29,2.4c0,1.05.73,2,2.19,2.75s3.18,1.71,5.19,2.76a53.73,53.73,0,0,1,9.94,6.65,12.7,12.7,0,0,1-.39,20.19q-5.19,4.08-14.21,4.08a37,37,0,0,1-8.41-1.11,27,27,0,0,1-7.55-2.83l4.3-9.81a21,21,0,0,0,5.26,2.11,22.17,22.17,0,0,0,6,1,7.59,7.59,0,0,0,4.68-1.22,3.31,3.31,0,0,0,1.61-2.57c0-.86-.78-1.79-2.36-2.79A52.72,52.72,0,0,0,373.05,304.94Z" transform="translate(-83.77 -46.8)"/><path class="cls-1" d="M398,324.12V275.46h13v48.66Z" transform="translate(-83.77 -46.8)"/><path class="cls-1" d="M416.06,300q0-11.24,6.37-18.4t17.32-7.15q11.88,0,17.82,7.3a27.2,27.2,0,0,1,5.94,17.75q0,11.31-6.3,18.46t-17.46,7.16q-11.67,0-17.68-7.34A27.13,27.13,0,0,1,416.06,300Zm13.39-.08a20.13,20.13,0,0,0,2.36,10.24q2.35,4.08,7.87,4.08a9,9,0,0,0,7.73-3.69q2.71-3.68,2.72-11.05a19.55,19.55,0,0,0-2.4-10.13q-2.4-4-7.84-4.05a8.84,8.84,0,0,0-7.65,4C430.37,292,429.45,295.55,429.45,299.93Z" transform="translate(-83.77 -46.8)"/><path class="cls-1" d="M468.52,324.12V275.46h12.1l18.75,26.41V275.46h13v48.66H500.23L481.55,298.5v25.62Z" transform="translate(-83.77 -46.8)"/><rect class="cls-1" y="288.7" width="33.26" height="10.49"/><rect class="cls-2" x="33.26" y="288.7" width="33.26" height="10.49"/><rect class="cls-3" x="66.51" y="288.7" width="33.26" height="10.49"/><polygon class="cls-1" points="135.69 228.66 116.94 228.66 135.69 255.06 135.69 228.66"/><polygon class="cls-1" points="136.55 277.32 117.87 251.7 117.87 277.32 114.95 277.32 114.95 277.32 148.3 277.32 148.3 277.32 136.55 277.32"/></svg>